# xmcd
#
# Track frame offsets:
#	150
#	16672
#	31675
#	47839
#	64427
#	82131
#	98361
#	113801
#	133371
#	148320
#	161732
#	174793
#	189418
#	205439
#	222934
#
# Disc length: 3159 seconds
#
# Revision: 0
# Processed by: cddbd v1.5.2PL0 Copyright (c) Steve Scherf et al.
# Submitted via: EZCDAudioConverter 2.1.5.1
#
DISCID=d50c550f
DTITLE=Lasse Stefanz - Wind Me Up
DYEAR=2017
DGENRE=Swedish Top 40 Dansband/Country 10s
TTITLE0=Du Hinner Med En Gubbe Till
TTITLE1=Släpp Taget
TTITLE2=Ännu En Vår
TTITLE3=Sunset Cantina
TTITLE4=Ensam
TTITLE5=En Dag Tillsammans
TTITLE6=Would You Like To Play With Fire
TTITLE7=Du Får Aldrig Hennes Kärlek
TTITLE8=Nu Står Jag Ensam Kvar
TTITLE9=No More
TTITLE10=Kysser Namnet På Brevet Som Hon Skrev
TTITLE11=Där Vildrosorna Blommar
TTITLE12=Min Resa Genom Livet
TTITLE13=Carry Me, Carrie
TTITLE14=Kärleken Är Röd
EXTD=
EXTT0=
EXTT1=
EXTT2=
EXTT3=
EXTT4=
EXTT5=
EXTT6=
EXTT7=
EXTT8=
EXTT9=
EXTT10=
EXTT11=
EXTT12=
EXTT13=
EXTT14=
PLAYORDER=
